<?xml version="1.0" encoding="UTF-8" standalone="no"?>
<!DOCTYPE svg PUBLIC "-//W3C//DTD SVG 1.1//EN"
 "http://www.w3.org/Graphics/SVG/1.1/DTD/svg11.dtd">
<!-- Generated by graphviz version 2.40.1 (20161225.0304)
 -->
<!-- Title: dependencies Pages: 1 -->
<svg width="1349pt" height="211pt"
 viewBox="0.00 0.00 1349.00 211.00" xmlns="http://www.w3.org/2000/svg" xmlns:xlink="http://www.w3.org/1999/xlink">
<g id="graph0" class="graph" transform="scale(1 1) rotate(0) translate(4 207)">
<title>dependencies</title>
<polygon fill="#ffffff" stroke="transparent" points="-4,4 -4,-207 1345,-207 1345,4 -4,4"/>
<text text-anchor="start" x="649.5091" y="-42.4" font-family="sans-serif" font-weight="bold" font-size="14.00" fill="#000000">Legend</text>
<polygon fill="#ffffb3" stroke="transparent" points="436.5,-10 436.5,-30 456.5,-30 456.5,-10 436.5,-10"/>
<text text-anchor="start" x="460.129" y="-15.4" font-family="sans-serif" font-size="14.00" fill="#000000"> &#160;Declarations</text>
<polygon fill="#8dd3c7" stroke="transparent" points="549.5,-10 549.5,-30 569.5,-30 569.5,-10 549.5,-10"/>
<text text-anchor="start" x="573.2251" y="-15.4" font-family="sans-serif" font-size="14.00" fill="#000000"> &#160;Module</text>
<polygon fill="#80b1d3" stroke="transparent" points="635.5,-10 635.5,-30 655.5,-30 655.5,-10 635.5,-10"/>
<text text-anchor="start" x="659.2812" y="-15.4" font-family="sans-serif" font-size="14.00" fill="#000000"> &#160;Bootstrap</text>
<polygon fill="#fdb462" stroke="transparent" points="732.5,-10 732.5,-30 752.5,-30 752.5,-10 732.5,-10"/>
<text text-anchor="start" x="756.1732" y="-15.4" font-family="sans-serif" font-size="14.00" fill="#000000"> &#160;Providers</text>
<polygon fill="#fb8072" stroke="transparent" points="828.5,-10 828.5,-30 848.5,-30 848.5,-10 828.5,-10"/>
<text text-anchor="start" x="852.2258" y="-15.4" font-family="sans-serif" font-size="14.00" fill="#000000"> &#160;Exports</text>
<g id="clust1" class="cluster">
<title>cluster_CoreModule</title>
<polygon fill="none" stroke="#000000" stroke-dasharray="1,5" points="8,-70 8,-195 1333,-195 1333,-70 8,-70"/>
</g>
<g id="clust6" class="cluster">
<title>cluster_CoreModule_providers</title>
<polygon fill="none" stroke="#000000" points="16,-78 16,-130 1325,-130 1325,-78 16,-78"/>
</g>
<!-- ApiPrefixInterceptor -->
<g id="node1" class="node">
<title>ApiPrefixInterceptor</title>
<ellipse fill="#fdb462" stroke="#000000" cx="1226" cy="-104" rx="91.4481" ry="18"/>
<text text-anchor="middle" x="1226" y="-99.8" font-family="Times,serif" font-size="14.00" fill="#000000">ApiPrefixInterceptor</text>
</g>
<!-- CoreModule -->
<g id="node8" class="node">
<title>CoreModule</title>
<polygon fill="#8dd3c7" stroke="#000000" points="733.2619,-187 730.2619,-191 709.2619,-191 706.2619,-187 646.7381,-187 646.7381,-151 733.2619,-151 733.2619,-187"/>
<text text-anchor="middle" x="690" y="-164.8" font-family="Times,serif" font-size="14.00" fill="#000000">CoreModule</text>
</g>
<!-- ApiPrefixInterceptor&#45;&gt;CoreModule -->
<g id="edge1" class="edge">
<title>ApiPrefixInterceptor&#45;&gt;CoreModule</title>
<path fill="none" stroke="#000000" d="M1256.4913,-121.1631C1256.4913,-143.0234 1256.4913,-178 1256.4913,-178 1256.4913,-178 743.511,-178 743.511,-178"/>
<polygon fill="#000000" stroke="#000000" points="743.511,-174.5001 733.511,-178 743.511,-181.5001 743.511,-174.5001"/>
</g>
<!-- ApiPrefixInterceptor&#45;&gt;CoreModule -->
<g id="edge2" class="edge">
<title>ApiPrefixInterceptor&#45;&gt;CoreModule</title>
<path fill="none" stroke="#000000" d="M1195.5087,-121.078C1195.5087,-140.3364 1195.5087,-169 1195.5087,-169 1195.5087,-169 743.5369,-169 743.5369,-169"/>
<polygon fill="#000000" stroke="#000000" points="743.5369,-165.5001 733.5369,-169 743.5369,-172.5001 743.5369,-165.5001"/>
</g>
<!-- AuthenticationService -->
<g id="node2" class="node">
<title>AuthenticationService</title>
<ellipse fill="#fdb462" stroke="#000000" cx="1019" cy="-104" rx="97.2683" ry="18"/>
<text text-anchor="middle" x="1019" y="-99.8" font-family="Times,serif" font-size="14.00" fill="#000000">AuthenticationService</text>
</g>
<!-- AuthenticationService&#45;&gt;CoreModule -->
<g id="edge3" class="edge">
<title>AuthenticationService&#45;&gt;CoreModule</title>
<path fill="none" stroke="#000000" d="M1019,-122.027C1019,-138.3976 1019,-160 1019,-160 1019,-160 743.3493,-160 743.3493,-160"/>
<polygon fill="#000000" stroke="#000000" points="743.3494,-156.5001 733.3493,-160 743.3493,-163.5001 743.3494,-156.5001"/>
</g>
<!-- ErrorHandlerInterceptor -->
<g id="node3" class="node">
<title>ErrorHandlerInterceptor</title>
<ellipse fill="#fdb462" stroke="#000000" cx="799" cy="-104" rx="104.7327" ry="18"/>
<text text-anchor="middle" x="799" y="-99.8" font-family="Times,serif" font-size="14.00" fill="#000000">ErrorHandlerInterceptor</text>
</g>
<!-- ErrorHandlerInterceptor&#45;&gt;CoreModule -->
<g id="edge4" class="edge">
<title>ErrorHandlerInterceptor&#45;&gt;CoreModule</title>
<path fill="none" stroke="#000000" d="M713.7573,-114.7334C713.7573,-114.7334 713.7573,-140.8723 713.7573,-140.8723"/>
<polygon fill="#000000" stroke="#000000" points="710.2574,-140.8722 713.7573,-150.8723 717.2574,-140.8723 710.2574,-140.8722"/>
</g>
<!-- ErrorMessageService -->
<g id="node4" class="node">
<title>ErrorMessageService</title>
<ellipse fill="#fdb462" stroke="#000000" cx="582" cy="-104" rx="94.2963" ry="18"/>
<text text-anchor="middle" x="582" y="-99.8" font-family="Times,serif" font-size="14.00" fill="#000000">ErrorMessageService</text>
</g>
<!-- ErrorMessageService&#45;&gt;CoreModule -->
<g id="edge5" class="edge">
<title>ErrorMessageService&#45;&gt;CoreModule</title>
<path fill="none" stroke="#000000" d="M661.3836,-113.8721C661.3836,-113.8721 661.3836,-140.9074 661.3836,-140.9074"/>
<polygon fill="#000000" stroke="#000000" points="657.8837,-140.9073 661.3836,-150.9074 664.8837,-140.9074 657.8837,-140.9073"/>
</g>
<!-- LocalStorageService -->
<g id="node5" class="node">
<title>LocalStorageService</title>
<ellipse fill="#fdb462" stroke="#000000" cx="378" cy="-104" rx="91.4481" ry="18"/>
<text text-anchor="middle" x="378" y="-99.8" font-family="Times,serif" font-size="14.00" fill="#000000">LocalStorageService</text>
</g>
<!-- LocalStorageService&#45;&gt;CoreModule -->
<g id="edge6" class="edge">
<title>LocalStorageService&#45;&gt;CoreModule</title>
<path fill="none" stroke="#000000" d="M378,-122.027C378,-138.3976 378,-160 378,-160 378,-160 636.6177,-160 636.6177,-160"/>
<polygon fill="#000000" stroke="#000000" points="636.6178,-163.5001 646.6177,-160 636.6177,-156.5001 636.6178,-163.5001"/>
</g>
<!-- UserService -->
<g id="node6" class="node">
<title>UserService</title>
<ellipse fill="#fdb462" stroke="#000000" cx="210" cy="-104" rx="58.4415" ry="18"/>
<text text-anchor="middle" x="210" y="-99.8" font-family="Times,serif" font-size="14.00" fill="#000000">UserService</text>
</g>
<!-- UserService&#45;&gt;CoreModule -->
<g id="edge7" class="edge">
<title>UserService&#45;&gt;CoreModule</title>
<path fill="none" stroke="#000000" d="M210,-122.1061C210,-141.3391 210,-169 210,-169 210,-169 636.5566,-169 636.5566,-169"/>
<polygon fill="#000000" stroke="#000000" points="636.5567,-172.5001 646.5566,-169 636.5566,-165.5001 636.5567,-172.5001"/>
</g>
<!-- UtilService -->
<g id="node7" class="node">
<title>UtilService</title>
<ellipse fill="#fdb462" stroke="#000000" cx="79" cy="-104" rx="55.0285" ry="18"/>
<text text-anchor="middle" x="79" y="-99.8" font-family="Times,serif" font-size="14.00" fill="#000000">UtilService</text>
</g>
<!-- UtilService&#45;&gt;CoreModule -->
<g id="edge8" class="edge">
<title>UtilService&#45;&gt;CoreModule</title>
<path fill="none" stroke="#000000" d="M79,-122.2921C79,-144.2057 79,-178 79,-178 79,-178 636.5482,-178 636.5482,-178"/>
<polygon fill="#000000" stroke="#000000" points="636.5482,-181.5001 646.5482,-178 636.5482,-174.5001 636.5482,-181.5001"/>
</g>
</g>
</svg>
