<?xml version="1.0" encoding="UTF-8" standalone="no"?>
<!DOCTYPE svg PUBLIC "-//W3C//DTD SVG 1.1//EN"
 "http://www.w3.org/Graphics/SVG/1.1/DTD/svg11.dtd">
<!-- Generated by graphviz version 2.40.1 (20161225.0304)
 -->
<!-- Title: dependencies Pages: 1 -->
<svg width="1010pt" height="284pt"
 viewBox="0.00 0.00 1010.00 284.00" xmlns="http://www.w3.org/2000/svg" xmlns:xlink="http://www.w3.org/1999/xlink">
<g id="graph0" class="graph" transform="scale(1 1) rotate(0) translate(4 280)">
<title>dependencies</title>
<polygon fill="#ffffff" stroke="transparent" points="-4,4 -4,-280 1006,-280 1006,4 -4,4"/>
<text text-anchor="start" x="480.0091" y="-42.4" font-family="sans-serif" font-weight="bold" font-size="14.00" fill="#000000">Legend</text>
<polygon fill="#ffffb3" stroke="transparent" points="267,-10 267,-30 287,-30 287,-10 267,-10"/>
<text text-anchor="start" x="290.629" y="-15.4" font-family="sans-serif" font-size="14.00" fill="#000000"> &#160;Declarations</text>
<polygon fill="#8dd3c7" stroke="transparent" points="380,-10 380,-30 400,-30 400,-10 380,-10"/>
<text text-anchor="start" x="403.7251" y="-15.4" font-family="sans-serif" font-size="14.00" fill="#000000"> &#160;Module</text>
<polygon fill="#80b1d3" stroke="transparent" points="466,-10 466,-30 486,-30 486,-10 466,-10"/>
<text text-anchor="start" x="489.7812" y="-15.4" font-family="sans-serif" font-size="14.00" fill="#000000"> &#160;Bootstrap</text>
<polygon fill="#fdb462" stroke="transparent" points="563,-10 563,-30 583,-30 583,-10 563,-10"/>
<text text-anchor="start" x="586.6732" y="-15.4" font-family="sans-serif" font-size="14.00" fill="#000000"> &#160;Providers</text>
<polygon fill="#fb8072" stroke="transparent" points="659,-10 659,-30 679,-30 679,-10 659,-10"/>
<text text-anchor="start" x="682.7258" y="-15.4" font-family="sans-serif" font-size="14.00" fill="#000000"> &#160;Exports</text>
<g id="clust1" class="cluster">
<title>cluster_SharedModule</title>
<polygon fill="none" stroke="#000000" stroke-dasharray="1,5" points="8,-70 8,-268 994,-268 994,-70 8,-70"/>
</g>
<g id="clust2" class="cluster">
<title>cluster_SharedModule_declarations</title>
<polygon fill="none" stroke="#000000" points="29,-78 29,-130 978,-130 978,-78 29,-78"/>
</g>
<g id="clust10" class="cluster">
<title>cluster_SharedModule_exports</title>
<polygon fill="none" stroke="#000000" points="16,-208 16,-260 986,-260 986,-208 16,-208"/>
</g>
<!-- BlankComponent -->
<g id="node1" class="node">
<title>BlankComponent</title>
<polygon fill="#ffffb3" stroke="#000000" points="970.2744,-122 855.7256,-122 855.7256,-86 970.2744,-86 970.2744,-122"/>
<text text-anchor="middle" x="913" y="-99.8" font-family="Times,serif" font-size="14.00" fill="#000000">BlankComponent</text>
</g>
<!-- SharedModule -->
<g id="node7" class="node">
<title>SharedModule</title>
<polygon fill="#8dd3c7" stroke="#000000" points="450.4231,-187 447.4231,-191 426.4231,-191 423.4231,-187 351.5769,-187 351.5769,-151 450.4231,-151 450.4231,-187"/>
<text text-anchor="middle" x="401" y="-164.8" font-family="Times,serif" font-size="14.00" fill="#000000">SharedModule</text>
</g>
<!-- BlankComponent&#45;&gt;SharedModule -->
<g id="edge1" class="edge">
<title>BlankComponent&#45;&gt;SharedModule</title>
<path fill="none" stroke="#000000" d="M933.5457,-122.2222C933.5457,-140.8285 933.5457,-167 933.5457,-167 933.5457,-167 460.6224,-167 460.6224,-167"/>
<polygon fill="#000000" stroke="#000000" points="460.6224,-163.5001 450.6224,-167 460.6224,-170.5001 460.6224,-163.5001"/>
</g>
<!-- BreadcrumbComponent -->
<g id="node2" class="node">
<title>BreadcrumbComponent</title>
<polygon fill="#ffffb3" stroke="#000000" points="837.0253,-122 686.9747,-122 686.9747,-86 837.0253,-86 837.0253,-122"/>
<text text-anchor="middle" x="762" y="-99.8" font-family="Times,serif" font-size="14.00" fill="#000000">BreadcrumbComponent</text>
</g>
<!-- BreadcrumbComponent&#45;&gt;SharedModule -->
<g id="edge2" class="edge">
<title>BreadcrumbComponent&#45;&gt;SharedModule</title>
<path fill="none" stroke="#000000" d="M787.5041,-122.0336C787.5041,-139.0597 787.5041,-162 787.5041,-162 787.5041,-162 460.3436,-162 460.3436,-162"/>
<polygon fill="#000000" stroke="#000000" points="460.3436,-158.5001 450.3436,-162 460.3436,-165.5001 460.3436,-158.5001"/>
</g>
<!-- ButtonLoaderComponent -->
<g id="node3" class="node">
<title>ButtonLoaderComponent</title>
<polygon fill="#ffffb3" stroke="#000000" points="668.5926,-122 509.4074,-122 509.4074,-86 668.5926,-86 668.5926,-122"/>
<text text-anchor="middle" x="589" y="-99.8" font-family="Times,serif" font-size="14.00" fill="#000000">ButtonLoaderComponent</text>
</g>
<!-- ButtonLoaderComponent&#45;&gt;SharedModule -->
<g id="edge3" class="edge">
<title>ButtonLoaderComponent&#45;&gt;SharedModule</title>
<path fill="none" stroke="#000000" d="M615.5154,-122.2396C615.5154,-137.5706 615.5154,-157 615.5154,-157 615.5154,-157 460.2142,-157 460.2142,-157"/>
<polygon fill="#000000" stroke="#000000" points="460.2142,-153.5001 450.2142,-157 460.2141,-160.5001 460.2142,-153.5001"/>
</g>
<!-- FormErrorWrapperComponent -->
<g id="node4" class="node">
<title>FormErrorWrapperComponent</title>
<polygon fill="#ffffb3" stroke="#000000" points="491.1657,-122 300.8343,-122 300.8343,-86 491.1657,-86 491.1657,-122"/>
<text text-anchor="middle" x="396" y="-99.8" font-family="Times,serif" font-size="14.00" fill="#000000">FormErrorWrapperComponent</text>
</g>
<!-- FormErrorWrapperComponent&#45;&gt;SharedModule -->
<g id="edge4" class="edge">
<title>FormErrorWrapperComponent&#45;&gt;SharedModule</title>
<path fill="none" stroke="#000000" d="M401,-122.1061C401,-122.1061 401,-140.991 401,-140.991"/>
<polygon fill="#000000" stroke="#000000" points="397.5001,-140.9909 401,-150.991 404.5001,-140.991 397.5001,-140.9909"/>
</g>
<!-- FullComponent -->
<g id="node5" class="node">
<title>FullComponent</title>
<polygon fill="#ffffb3" stroke="#000000" points="282.8963,-122 179.1037,-122 179.1037,-86 282.8963,-86 282.8963,-122"/>
<text text-anchor="middle" x="231" y="-99.8" font-family="Times,serif" font-size="14.00" fill="#000000">FullComponent</text>
</g>
<!-- FullComponent&#45;&gt;SharedModule -->
<g id="edge5" class="edge">
<title>FullComponent&#45;&gt;SharedModule</title>
<path fill="none" stroke="#000000" d="M244.816,-122.0091C244.816,-138.0494 244.816,-159 244.816,-159 244.816,-159 341.5824,-159 341.5824,-159"/>
<polygon fill="#000000" stroke="#000000" points="341.5825,-162.5001 351.5824,-159 341.5824,-155.5001 341.5825,-162.5001"/>
</g>
<!-- SpinnerComponent -->
<g id="node6" class="node">
<title>SpinnerComponent</title>
<polygon fill="#ffffb3" stroke="#000000" points="161.3809,-122 36.6191,-122 36.6191,-86 161.3809,-86 161.3809,-122"/>
<text text-anchor="middle" x="99" y="-99.8" font-family="Times,serif" font-size="14.00" fill="#000000">SpinnerComponent</text>
</g>
<!-- SpinnerComponent&#45;&gt;SharedModule -->
<g id="edge6" class="edge">
<title>SpinnerComponent&#45;&gt;SharedModule</title>
<path fill="none" stroke="#000000" d="M156.8154,-122.2667C156.8154,-140.5552 156.8154,-166 156.8154,-166 156.8154,-166 341.5856,-166 341.5856,-166"/>
<polygon fill="#000000" stroke="#000000" points="341.5856,-169.5001 351.5856,-166 341.5856,-162.5001 341.5856,-169.5001"/>
</g>
<!-- BlankComponent  -->
<g id="node8" class="node">
<title>BlankComponent </title>
<polygon fill="#fb8072" stroke="#000000" points="978.2745,-252 859.7255,-252 859.7255,-216 978.2745,-216 978.2745,-252"/>
<text text-anchor="middle" x="919" y="-229.8" font-family="Times,serif" font-size="14.00" fill="#000000">BlankComponent </text>
</g>
<!-- SharedModule&#45;&gt;BlankComponent  -->
<g id="edge7" class="edge">
<title>SharedModule&#45;&gt;BlankComponent </title>
<path fill="none" stroke="#000000" stroke-dasharray="5,2" d="M450.3423,-172C575.7249,-172 896.7043,-172 896.7043,-172 896.7043,-172 896.7043,-205.7333 896.7043,-205.7333"/>
<polygon fill="#000000" stroke="#000000" points="893.2044,-205.7333 896.7043,-215.7333 900.2044,-205.7333 893.2044,-205.7333"/>
</g>
<!-- BreadcrumbComponent  -->
<g id="node9" class="node">
<title>BreadcrumbComponent </title>
<polygon fill="#fb8072" stroke="#000000" points="842.0246,-252 687.9754,-252 687.9754,-216 842.0246,-216 842.0246,-252"/>
<text text-anchor="middle" x="765" y="-229.8" font-family="Times,serif" font-size="14.00" fill="#000000">BreadcrumbComponent </text>
</g>
<!-- SharedModule&#45;&gt;BreadcrumbComponent  -->
<g id="edge8" class="edge">
<title>SharedModule&#45;&gt;BreadcrumbComponent </title>
<path fill="none" stroke="#000000" stroke-dasharray="5,2" d="M450.3264,-177C543.8608,-177 737.7459,-177 737.7459,-177 737.7459,-177 737.7459,-205.9648 737.7459,-205.9648"/>
<polygon fill="#000000" stroke="#000000" points="734.246,-205.9648 737.7459,-215.9648 741.246,-205.9649 734.246,-205.9648"/>
</g>
<!-- ButtonLoaderComponent  -->
<g id="node10" class="node">
<title>ButtonLoaderComponent </title>
<polygon fill="#fb8072" stroke="#000000" points="670.0931,-252 507.9069,-252 507.9069,-216 670.0931,-216 670.0931,-252"/>
<text text-anchor="middle" x="589" y="-229.8" font-family="Times,serif" font-size="14.00" fill="#000000">ButtonLoaderComponent </text>
</g>
<!-- SharedModule&#45;&gt;ButtonLoaderComponent  -->
<g id="edge9" class="edge">
<title>SharedModule&#45;&gt;ButtonLoaderComponent </title>
<path fill="none" stroke="#000000" stroke-dasharray="5,2" d="M450.3281,-182C497.8178,-182 562.4846,-182 562.4846,-182 562.4846,-182 562.4846,-205.8129 562.4846,-205.8129"/>
<polygon fill="#000000" stroke="#000000" points="558.9847,-205.8129 562.4846,-215.8129 565.9847,-205.813 558.9847,-205.8129"/>
</g>
<!-- FormErrorWrapperComponent  -->
<g id="node11" class="node">
<title>FormErrorWrapperComponent </title>
<polygon fill="#fb8072" stroke="#000000" points="489.6659,-252 296.3341,-252 296.3341,-216 489.6659,-216 489.6659,-252"/>
<text text-anchor="middle" x="393" y="-229.8" font-family="Times,serif" font-size="14.00" fill="#000000">FormErrorWrapperComponent </text>
</g>
<!-- SharedModule&#45;&gt;FormErrorWrapperComponent  -->
<g id="edge10" class="edge">
<title>SharedModule&#45;&gt;FormErrorWrapperComponent </title>
<path fill="none" stroke="#000000" stroke-dasharray="5,2" d="M401,-187.1061C401,-187.1061 401,-205.991 401,-205.991"/>
<polygon fill="#000000" stroke="#000000" points="397.5001,-205.9909 401,-215.991 404.5001,-205.991 397.5001,-205.9909"/>
</g>
<!-- FullComponent  -->
<g id="node12" class="node">
<title>FullComponent </title>
<polygon fill="#fb8072" stroke="#000000" points="277.8969,-252 170.1031,-252 170.1031,-216 277.8969,-216 277.8969,-252"/>
<text text-anchor="middle" x="224" y="-229.8" font-family="Times,serif" font-size="14.00" fill="#000000">FullComponent </text>
</g>
<!-- SharedModule&#45;&gt;FullComponent  -->
<g id="edge11" class="edge">
<title>SharedModule&#45;&gt;FullComponent </title>
<path fill="none" stroke="#000000" stroke-dasharray="5,2" d="M351.3251,-180C295.3081,-180 211.934,-180 211.934,-180 211.934,-180 211.934,-205.7181 211.934,-205.7181"/>
<polygon fill="#000000" stroke="#000000" points="208.4341,-205.718 211.934,-215.7181 215.4341,-205.7181 208.4341,-205.718"/>
</g>
<!-- SpinnerComponent  -->
<g id="node13" class="node">
<title>SpinnerComponent </title>
<polygon fill="#fb8072" stroke="#000000" points="152.3814,-252 23.6186,-252 23.6186,-216 152.3814,-216 152.3814,-252"/>
<text text-anchor="middle" x="88" y="-229.8" font-family="Times,serif" font-size="14.00" fill="#000000">SpinnerComponent </text>
</g>
<!-- SharedModule&#45;&gt;SpinnerComponent  -->
<g id="edge12" class="edge">
<title>SharedModule&#45;&gt;SpinnerComponent </title>
<path fill="none" stroke="#000000" stroke-dasharray="5,2" d="M351.7354,-173C265.0596,-173 94.375,-173 94.375,-173 94.375,-173 94.375,-205.698 94.375,-205.698"/>
<polygon fill="#000000" stroke="#000000" points="90.8751,-205.698 94.375,-215.698 97.8751,-205.698 90.8751,-205.698"/>
</g>
</g>
</svg>
